<?xml version="1.0" standalone="no"?>
<!DOCTYPE svg PUBLIC "-//W3C//DTD SVG 20010904//EN"
 "http://www.w3.org/TR/2001/REC-SVG-20010904/DTD/svg10.dtd">
<svg version="1.0" xmlns="http://www.w3.org/2000/svg"
 width="1024.000000pt" height="1024.000000pt" viewBox="0 0 1024.000000 1024.000000"
 preserveAspectRatio="xMidYMid meet">
<metadata>
Created by potrace 1.11, written by Peter Selinger 2001-2013
</metadata>
<g transform="translate(0.000000,1024.000000) scale(0.100000,-0.100000)"
fill="#000000" stroke="none">
<path d="M799 10228 c-16 -15 -28 -16 -46 -5 -7 5 -10 1 -6 -11 3 -12 -2 -18
-14 -19 -10 -1 -33 -2 -51 -4 -18 -1 -35 -7 -39 -12 -4 -6 -1 -7 8 -2 8 5 10
4 6 0 -10 -12 -38 -15 -31 -4 10 17 -5 9 -27 -13 -12 -13 -19 -17 -14 -10 6
11 3 11 -13 1 -12 -7 -19 -16 -16 -20 2 -4 -4 -6 -14 -5 -10 0 -16 -5 -14 -13
3 -12 0 -12 -12 -1 -14 10 -16 10 -17 -6 0 -11 -3 -14 -5 -7 -7 16 -34 5 -34
-14 0 -8 -4 -11 -10 -8 -5 3 -10 1 -10 -5 0 -6 -4 -9 -9 -5 -6 3 -15 -4 -21
-15 -6 -11 -17 -20 -24 -20 -8 0 -26 -16 -40 -35 -15 -19 -30 -34 -34 -32 -4
1 -17 -8 -30 -20 -12 -13 -20 -23 -17 -23 3 0 -5 -10 -18 -22 -12 -13 -26 -22
-31 -20 -5 2 -3 -5 5 -14 8 -10 9 -15 2 -11 -7 4 -14 -1 -18 -13 -6 -18 -17
-25 -38 -21 -5 1 -6 -3 -2 -9 3 -5 -4 -24 -16 -42 -14 -18 -17 -28 -8 -24 7 4
6 1 -4 -7 -10 -9 -18 -19 -19 -24 0 -4 -4 -7 -10 -5 -5 1 -7 -2 -3 -8 9 -15
-5 -51 -17 -44 -7 5 -9 -1 -5 -15 3 -14 0 -24 -9 -28 -8 -3 -14 -10 -13 -17 4
-31 -2 -47 -13 -40 -10 6 -10 4 0 -8 10 -13 10 -17 -3 -21 -9 -4 -12 -13 -8
-23 5 -12 3 -15 -6 -9 -10 6 -11 3 -1 -15 8 -15 8 -20 1 -16 -7 4 -11 -1 -11
-13 0 -10 6 -22 13 -25 6 -3 3 -4 -9 -1 -14 4 -21 0 -21 -9 0 -9 4 -13 9 -10
4 3 8 0 8 -5 0 -6 -4 -11 -9 -11 -6 0 -9 -1692 -9 -4265 0 -2346 3 -4263 7
-4260 4 2 8 -2 8 -10 0 -8 -3 -12 -7 -10 -4 2 -6 -7 -6 -21 1 -14 8 -29 15
-34 8 -4 11 -15 8 -24 -4 -9 -2 -16 2 -16 5 0 12 -7 15 -16 5 -14 4 -15 -9 -4
-21 18 -19 7 5 -20 16 -19 18 -26 7 -38 -8 -11 -8 -14 0 -9 6 4 14 3 17 -2 4
-5 2 -12 -4 -16 -6 -4 -5 -12 5 -21 8 -9 13 -20 10 -25 -4 -5 2 -9 12 -9 15 0
16 -2 3 -10 -11 -7 -11 -10 -2 -10 7 0 10 -4 7 -10 -3 -5 -1 -10 4 -10 6 0 11
-7 11 -16 0 -9 5 -12 12 -8 8 5 7 0 -2 -11 -8 -10 -10 -16 -4 -12 7 4 18 -1
25 -10 12 -14 12 -16 -1 -8 -13 8 -13 7 -1 -8 7 -9 10 -17 5 -17 -5 0 -1 -5 9
-11 9 -5 17 -17 17 -24 0 -8 7 -15 15 -15 8 0 14 -3 14 -8 -4 -22 3 -31 18
-25 11 4 14 3 9 -6 -5 -7 3 -22 18 -38 14 -14 23 -29 20 -34 -3 -5 -2 -9 3 -8
20 3 34 -2 28 -11 -3 -6 -1 -10 5 -10 6 0 8 -5 4 -12 -4 -7 -3 -8 4 -4 13 8
54 -29 44 -40 -4 -4 1 -4 11 -1 11 4 17 1 17 -8 0 -9 6 -12 15 -9 14 6 20 -6
16 -29 -1 -5 3 -6 9 -2 5 3 10 1 10 -5 0 -6 4 -9 9 -5 5 3 16 -2 24 -10 12
-11 17 -12 20 -2 3 7 6 5 6 -5 1 -9 6 -20 13 -24 7 -5 9 -2 4 7 -6 10 -4 10 6
-1 7 -8 22 -17 33 -18 11 -2 22 -8 23 -13 2 -5 8 -7 13 -3 5 3 9 -3 9 -12 0
-10 3 -14 7 -11 3 4 13 1 21 -6 11 -8 14 -8 9 0 -4 6 -2 15 4 19 8 4 9 3 5 -4
-4 -7 -2 -12 4 -12 6 0 8 -4 5 -10 -3 -5 0 -7 8 -4 8 3 18 0 22 -6 5 -8 11 -8
21 1 11 9 14 8 14 -4 0 -11 5 -14 16 -10 10 4 20 -1 26 -11 7 -13 13 -14 23
-6 9 7 15 8 20 1 4 -7 1362 -11 4316 -11 3133 0 4308 3 4303 11 -4 8 0 8 15 0
11 -7 21 -8 21 -3 0 5 12 9 28 8 18 -1 26 3 24 13 -3 12 0 12 12 1 9 -7 16 -8
16 -2 0 6 11 9 25 7 22 -2 23 0 13 13 -11 13 -10 14 9 4 16 -9 24 -9 29 0 5 7
3 8 -6 3 -9 -6 -11 -4 -5 4 4 8 11 9 17 3 10 -10 58 7 58 21 0 5 5 5 12 1 8
-5 9 -1 4 12 -6 15 -5 16 5 7 9 -9 18 -8 40 8 16 11 34 17 40 13 8 -4 9 -3 5
5 -5 7 4 15 23 22 17 6 28 15 25 20 -5 8 9 13 29 10 4 0 7 6 7 15 0 8 5 12 11
9 6 -4 13 2 16 14 3 12 10 21 15 21 5 0 6 -6 2 -12 -4 -8 -3 -10 2 -5 5 5 9
13 9 18 0 5 2 8 5 7 8 -4 38 26 34 33 -2 4 6 9 17 12 12 3 18 10 15 16 -4 5 6
17 21 25 16 9 21 16 13 16 -12 0 -11 3 3 11 10 6 14 15 10 22 -4 7 2 5 12 -3
14 -11 17 -12 10 -1 -5 9 0 20 16 33 13 11 17 16 9 12 -8 -4 -5 4 8 18 12 13
22 32 22 41 0 9 5 17 10 17 6 0 10 9 10 21 0 11 5 17 10 14 6 -3 10 3 10 15 0
12 4 18 10 15 6 -3 7 1 4 9 -3 9 -1 16 5 16 6 0 11 5 11 11 0 5 -6 7 -12 3
-10 -6 -10 -5 -1 8 7 8 9 19 5 24 -4 4 0 3 9 -4 13 -9 16 -9 16 3 0 8 -4 15
-9 15 -4 0 -8 5 -8 11 0 5 5 7 11 3 7 -4 10 -1 7 7 -3 8 2 20 11 27 9 8 10 11
3 7 -7 -4 -12 0 -12 10 0 9 4 14 9 11 5 -3 11 1 15 9 3 8 1 15 -4 15 -5 0 -2
12 5 27 11 21 12 29 2 35 -9 6 -9 8 0 8 10 0 12 933 12 4279 0 2514 -3 4291
-9 4310 -5 19 -5 29 1 26 5 -4 9 -1 9 4 0 6 -7 11 -15 11 -8 0 -15 5 -15 11 0
5 3 8 8 6 4 -3 7 5 7 18 0 13 -2 23 -5 23 -19 -1 -23 4 -10 12 13 8 12 10 -4
10 -11 0 -16 3 -13 6 3 4 2 15 -4 25 -7 14 -6 19 2 19 6 0 1 9 -12 20 -17 14
-19 18 -6 14 15 -6 15 -2 -5 34 -11 23 -25 39 -30 36 -4 -3 -5 2 -2 10 3 9 1
16 -6 16 -6 0 -8 5 -5 10 3 6 1 10 -5 10 -6 0 -8 5 -5 10 3 6 2 10 -2 10 -5 0
-17 18 -27 40 -10 22 -22 38 -27 35 -5 -4 -9 3 -9 15 0 12 -3 19 -7 17 -5 -3
-17 4 -28 15 -20 19 -20 19 0 13 11 -3 8 1 -7 10 -16 8 -28 18 -28 21 0 3 6 2
13 -2 6 -5 -1 6 -18 24 -21 22 -32 28 -37 19 -5 -8 -8 -4 -8 11 0 13 -4 20
-10 17 -5 -3 -10 1 -10 9 0 9 -4 16 -10 16 -5 0 -19 9 -30 20 -12 12 -20 15
-20 8 0 -7 -6 -2 -13 12 -7 14 -27 30 -45 36 -18 5 -29 14 -25 18 5 5 -2 5
-15 1 -16 -4 -22 -3 -20 7 2 7 -7 14 -19 16 -13 2 -23 8 -23 13 0 5 -7 9 -15
9 -8 0 -15 5 -15 11 0 8 -6 7 -17 -2 -9 -8 -14 -9 -11 -3 4 5 -6 15 -23 21
-16 6 -27 7 -23 2 3 -5 0 -9 -5 -9 -6 0 -11 6 -11 14 0 8 -9 12 -25 11 -14 -2
-23 1 -19 6 3 5 -7 10 -23 10 -15 1 -42 2 -60 3 -17 0 -35 4 -38 8 -4 4 4 5
18 2 14 -2 28 0 31 5 4 6 -1635 10 -4304 10 -2894 0 -4310 -3 -4310 -10 0 -6
5 -7 12 -3 7 5 8 3 4 -5 -6 -9 -12 -8 -26 4 -15 13 -20 14 -31 3z m9026 -168
c3 -5 1 -10 -4 -10 -6 0 -11 5 -11 10 0 6 2 10 4 10 3 0 8 -4 11 -10z"/>
</g>
</svg>
